HIERARCHY
ROOT hip
{
  OFFSET 0 0 0
  CHANNELS 6 Xposition Yposition Zposition Zrotation Yrotation Xrotation
  JOINT abdomen
  {
    OFFSET 0 20.6881 -0.73152
    CHANNELS 3 Zrotation Xrotation Yrotation
    JOINT chest
    {
      OFFSET 0 11.7043 -0.48768
      CHANNELS 3 Zrotation Xrotation Yrotation
      JOINT neck
      {
        OFFSET 0 22.1894 -2.19456
        CHANNELS 3 Zrotation Xrotation Yrotation
        JOINT head
        {
          OFFSET -0.24384 7.07133 1.2192
          CHANNELS 3 Zrotation Xrotation Yrotation
          JOINT leftEye
          {
            OFFSET 4.14528 8.04674 8.04672
            CHANNELS 3 Zrotation Xrotation Yrotation
            End Site
            {
              OFFSET 1 0 0
            }
          }
          JOINT rightEye
          {
            OFFSET -3.6576 8.04674 8.04672
            CHANNELS 3 Zrotation Xrotation Yrotation
            End Site
            {
              OFFSET 1 0 0
            }
          }
        }
      }
      JOINT rCollar
      {
        OFFSET -2.68224 19.2634 -4.8768
        CHANNELS 3 Zrotation Xrotation Yrotation
        JOINT rShldr
        {
          OFFSET -8.77824 -1.95073 1.46304
          CHANNELS 3 Zrotation Xrotation Yrotation
          JOINT rForeArm
          {
            OFFSET -28.1742 -1.7115 0.48768
            CHANNELS 3 Zrotation Xrotation Yrotation
            JOINT rHand
            {
              OFFSET -22.5879 0.773209 7.07136
              CHANNELS 3 Zrotation Xrotation Yrotation
              JOINT rThumb1
              {
                OFFSET -1.2192 -0.487915 3.41376
                CHANNELS 3 Zrotation Xrotation Yrotation
                JOINT rThumb2
                {
                  OFFSET -3.37035 -0.52449 3.41376
                  CHANNELS 3 Zrotation Xrotation Yrotation
                  End Site
                  {
                    OFFSET -1.78271 -1.18214 1.43049
                  }
                }
              }
              JOINT rIndex1
              {
                OFFSET -7.75947 0.938293 5.60832
                CHANNELS 3 Zrotation Xrotation Yrotation
                JOINT rIndex2
                {
                  OFFSET -2.54057 -0.884171 1.56538
                  CHANNELS 3 Zrotation Xrotation Yrotation
                  End Site
                  {
                    OFFSET -1.62519 -0.234802 1.16502
                  }
                }
              }
              JOINT rMid1
              {
                OFFSET -8.24714 1.18213 3.41376
                CHANNELS 3 Zrotation Xrotation Yrotation
                JOINT rMid2
                {
                  OFFSET -3.10165 -0.590103 1.0647
                  CHANNELS 3 Zrotation Xrotation Yrotation
                  End Site
                  {
                    OFFSET -2.48547 -0.328903 0.83742
                  }
                }
              }
              JOINT rRing1
              {
                OFFSET -8.82822 0.546677 1.51678
                CHANNELS 3 Zrotation Xrotation Yrotation
                JOINT rRing2
                {
                  OFFSET -2.60934 -0.819778 -0.0198488
                  CHANNELS 3 Zrotation Xrotation Yrotation
                  End Site
                  {
                    OFFSET -2.33842 -0.294052 0.168128
                  }
                }
              }
              JOINT rPinky1
              {
                OFFSET -8.27202 -0.0477905 -0.4584
                CHANNELS 3 Zrotation Xrotation Yrotation
                JOINT rPinky2
                {
                  OFFSET -1.82734 -0.647385 -0.700984
                  CHANNELS 3 Zrotation Xrotation Yrotation
                  End Site
                  {
                    OFFSET -1.69225 -0.51767 -0.607171
                  }
                }
              }
            }
          }
        }
      }
      JOINT lCollar
      {
        OFFSET 2.68224 19.2634 -4.8768
        CHANNELS 3 Zrotation Xrotation Yrotation
        JOINT lShldr
        {
          OFFSET 8.77824 -1.95073 1.46304
          CHANNELS 3 Zrotation Xrotation Yrotation
          JOINT lForeArm
          {
            OFFSET 28.1742 -1.7115 0.48768
            CHANNELS 3 Zrotation Xrotation Yrotation
            JOINT lHand
            {
              OFFSET 22.5879 0.773209 7.07136
              CHANNELS 3 Zrotation Xrotation Yrotation
              JOINT lThumb1
              {
                OFFSET 1.2192 -0.487915 3.41376
                CHANNELS 3 Zrotation Xrotation Yrotation
                JOINT lThumb2
                {
                  OFFSET 3.37035 -0.52449 3.41376
                  CHANNELS 3 Zrotation Xrotation Yrotation
                  End Site
                  {
                    OFFSET 1.78271 -1.18214 1.43049
                  }
                }
              }
              JOINT lIndex1
              {
                OFFSET 7.75947 0.938293 5.60832
                CHANNELS 3 Zrotation Xrotation Yrotation
                JOINT lIndex2
                {
                  OFFSET 2.54057 -0.884171 1.56538
                  CHANNELS 3 Zrotation Xrotation Yrotation
                  End Site
                  {
                    OFFSET 1.62519 -0.234802 1.16502
                  }
                }
              }
              JOINT lMid1
              {
                OFFSET 8.24714 1.18213 3.41376
                CHANNELS 3 Zrotation Xrotation Yrotation
                JOINT lMid2
                {
                  OFFSET 3.10165 -0.590103 1.0647
                  CHANNELS 3 Zrotation Xrotation Yrotation
                  End Site
                  {
                    OFFSET 2.48547 -0.328903 0.83742
                  }
                }
              }
              JOINT lRing1
              {
                OFFSET 8.82822 0.546677 1.51678
                CHANNELS 3 Zrotation Xrotation Yrotation
                JOINT lRing2
                {
                  OFFSET 2.60934 -0.819778 -0.0198488
                  CHANNELS 3 Zrotation Xrotation Yrotation
                  End Site
                  {
                    OFFSET 2.33842 -0.294052 0.168128
                  }
                }
              }
              JOINT lPinky1
              {
                OFFSET 8.27202 -0.0477905 -0.4584
                CHANNELS 3 Zrotation Xrotation Yrotation
                JOINT lPinky2
                {
                  OFFSET 1.82734 -0.647385 -0.700984
                  CHANNELS 3 Zrotation Xrotation Yrotation
                  End Site
                  {
                    OFFSET 1.69225 -0.51767 -0.607171
                  }
                }
              }
            }
          }
        }
      }
    }
  }
  JOINT rButtock
  {
    OFFSET -8.77824 4.35084 1.2192
    CHANNELS 3 Zrotation Xrotation Yrotation
    JOINT rThigh
    {
      OFFSET 0 -1.70687 -2.19456
      CHANNELS 3 Zrotation Xrotation Yrotation
      JOINT rShin
      {
        OFFSET 0 -36.8199 0.73152
        CHANNELS 3 Zrotation Xrotation Yrotation
        JOINT rFoot
        {
          OFFSET 0.73152 -45.1104 -5.12064
          CHANNELS 3 Zrotation Xrotation Yrotation
          End Site
          {
            OFFSET -1.1221 -3.69964 12.103
          }
        }
      }
    }
  }
  JOINT lButtock
  {
    OFFSET 8.77824 4.35084 1.2192
    CHANNELS 3 Zrotation Xrotation Yrotation
    JOINT lThigh
    {
      OFFSET 0 -1.70687 -2.19456
      CHANNELS 3 Zrotation Xrotation Yrotation
      JOINT lShin
      {
        OFFSET 0 -36.8199 0.73152
        CHANNELS 3 Zrotation Xrotation Yrotation
        JOINT lFoot
        {
          OFFSET -0.73152 -45.1104 -5.12064
          CHANNELS 3 Zrotation Xrotation Yrotation
          End Site
          {
            OFFSET 1.1221 -3.69964 12.103
          }
        }
      }
    }
  }
}
MOTION
Frames:	9
Frame Time:	0.00833333
14.583 75.187 9.78499 -177.154 -73.1623 179.561 -1.29827 -2.03394 -1.40107 -1.6579 -14.7684 -0.805683 -6.39486 4.75454 -12.03 -2.38628 -18.75 -23.0615 -0.0 0.0 0.0 -0.0 0.0 0.0 -2.03403e-15 -1.64754e-14 7.87372e-15 -8.43889 33.5657 18.0771 -18.1929 -10.9084 34.4462 -0.185783 12.204 1.74174 7.21927e-11 1.31966e-09 5.26913e-10 1.30915e-10 2.28496e-09 9.08665e-10 7.21924e-11 1.31966e-09 5.26914e-10 7.73091 5.47488 0.417314 7.21902e-11 1.31967e-09 5.26916e-10 2.90554 0.965183 0.102902 7.21998e-11 1.31967e-09 5.26914e-10 10.2786 0.731801 0.0259123 7.21911e-11 1.31967e-09 5.2692e-10 2.22167 -0.733487 -0.20892 -2.14059e-15 -1.64737e-14 7.64701e-15 9.97242 21.0053 11.2862 12.1797 -5.57547 -21.9582 0.355031 16.7095 -2.41797 -1.29647e-10 5.98998e-10 -8.82614e-11 -2.25673e-10 1.03548e-09 -1.50746e-10 -1.2965e-10 5.98998e-10 -8.82493e-11 -7.73091 5.47488 -0.417314 -1.29645e-10 5.98986e-10 -8.82564e-11 -2.90554 0.965183 -0.102902 -1.29655e-10 5.98997e-10 -8.8257e-11 -10.2786 0.731801 -0.0259123 -1.29639e-10 5.98999e-10 -8.8266e-11 -2.22167 -0.733487 0.20892 -2.03217e-16 0.0 -3.88251e-19 -33.9912 -46.1373 -38.0297 -0.864567 57.6723 1.60496 -11.0861 -19.6811 -23.1751 2.03217e-16 0.0 3.88251e-19 14.3557 -18.9247 34.2385 0.690513 55.4868 -1.74873 9.84926 -23.0148 20.0762
14.6077 75.0037 9.70542 -177.414 -73.4474 179.615 -1.6226 -1.48213 -1.56259 -1.55418 -14.7505 -0.832967 -6.44888 4.76403 -12.1024 -2.04749 -18.067 -23.1077 -0.0 0.0 0.0 -0.0 0.0 0.0 5.55508e-14 8.97787e-14 1.97422e-13 -8.76854 32.6931 19.2313 -17.1293 -9.79842 32.0487 -0.197723 12.5745 1.79641 6.68494e-10 3.07487e-09 9.09667e-10 1.16626e-09 5.31562e-09 1.56416e-09 6.68495e-10 3.07488e-09 9.0967e-10 7.73091 5.47488 0.417314 6.68494e-10 3.07488e-09 9.09673e-10 2.90554 0.965183 0.102902 6.68502e-10 3.07488e-09 9.0967e-10 10.2786 0.731801 0.0259123 6.68492e-10 3.07488e-09 9.09676e-10 2.22167 -0.733487 -0.20892 5.54562e-14 8.97917e-14 1.97215e-13 10.2421 20.9445 11.0715 12.2022 -5.59144 -22.0019 0.346768 16.5196 -2.38889 -4.32367e-10 -1.60685e-09 1.13162e-09 -7.32343e-10 -2.81194e-09 1.96072e-09 -4.3237e-10 -1.60685e-09 1.13162e-09 -7.73091 5.47488 -0.417314 -4.32365e-10 -1.60686e-09 1.13162e-09 -2.90554 0.965183 -0.102902 -4.32373e-10 -1.60685e-09 1.13162e-09 -10.2786 0.731801 -0.0259123 -4.32358e-10 -1.60685e-09 1.13161e-09 -2.22167 -0.733487 0.20892 -2.03217e-16 0.0 -3.88251e-19 -34.7352 -46.4155 -38.9819 -1.09707 61.5761 1.86195 -10.5624 -19.6172 -21.9821 2.03217e-16 0.0 3.88251e-19 14.4581 -18.9418 34.2503 0.708679 55.9691 -1.78067 9.77046 -23.1099 19.8774
14.6425 74.8202 9.6143 -177.738 -73.7709 179.765 -1.972 -1.01613 -1.71732 -1.45067 -14.7012 -0.860134 -6.48283 4.77523 -12.1706 -1.74026 -17.4143 -23.1617 -0.0 0.0 0.0 -0.0 0.0 0.0 9.94624e-14 2.19846e-13 3.59502e-13 -8.87406 31.7178 20.1668 -16.0778 -8.75961 29.8369 -0.203345 12.7414 1.82111 9.3217e-10 4.38092e-09 1.31769e-09 1.62652e-09 7.57689e-09 2.2664e-09 9.32171e-10 4.38093e-09 1.3177e-09 7.73091 5.47488 0.417314 9.3217e-10 4.38093e-09 1.3177e-09 2.90554 0.965183 0.102902 9.32177e-10 4.38093e-09 1.3177e-09 10.2786 0.731801 0.0259123 9.32167e-10 4.38092e-09 1.3177e-09 2.22167 -0.733487 -0.20892 9.93784e-14 2.19865e-13 3.59303e-13 10.5519 20.8476 10.8211 12.2214 -5.60504 -22.0391 0.342575 16.4212 -2.37386 -7.63285e-10 -3.37426e-09 2.15702e-09 -1.29028e-09 -5.89797e-09 3.73677e-09 -7.63288e-10 -3.37426e-09 2.15703e-09 -7.73091 5.47488 -0.417314 -7.63284e-10 -3.37426e-09 2.15703e-09 -2.90554 0.965183 -0.102902 -7.6329e-10 -3.37426e-09 2.15703e-09 -10.2786 0.731801 -0.0259123 -7.63276e-10 -3.37426e-09 2.15702e-09 -2.22167 -0.733487 0.20892 -2.03217e-16 0.0 -3.88251e-19 -35.2021 -46.5705 -39.6099 -1.37233 65.0218 2.15321 -10.0137 -19.5516 -20.7541 2.03217e-16 0.0 3.88251e-19 14.5481 -19.0281 34.2126 0.728118 56.4237 -1.80673 9.70198 -23.1946 19.6943
14.6888 74.6403 9.50936 -178.107 -74.1322 180.008 -2.35852 -0.644245 -1.86768 -1.35117 -14.6157 -0.889159 -6.49028 4.79006 -12.2366 -1.4624 -16.7999 -23.2291 -0.0 0.0 0.0 -0.0 0.0 0.0 1.31045e-13 4.43549e-13 5.2076e-13 -8.75241 30.6414 20.886 -15.0702 -7.83636 27.788 -0.198418 12.5948 1.79941 5.98025e-10 5.21045e-09 1.94385e-09 1.05508e-09 9.03129e-09 3.35099e-09 5.98027e-10 5.21045e-09 1.94385e-09 7.73091 5.47488 0.417314 5.98026e-10 5.21045e-09 1.94386e-09 2.90554 0.965183 0.102902 5.98033e-10 5.21045e-09 1.94386e-09 10.2786 0.731801 0.0259123 5.98023e-10 5.21045e-09 1.94387e-09 2.22167 -0.733487 -0.20892 1.30971e-13 4.43565e-13 5.20553e-13 10.9196 20.6927 10.5317 12.2332 -5.6135 -22.0623 0.343761 16.4482 -2.378 -1.24061e-09 -4.92931e-09 3.15221e-09 -2.10145e-09 -8.61989e-09 5.46297e-09 -1.24062e-09 -4.92931e-09 3.15222e-09 -7.73091 5.47488 -0.417314 -1.24061e-09 -4.92931e-09 3.15222e-09 -2.90554 0.965183 -0.102902 -1.24062e-09 -4.92931e-09 3.15222e-09 -10.2786 0.731801 -0.0259123 -1.24061e-09 -4.92931e-09 3.15221e-09 -2.22167 -0.733487 0.20892 -2.03217e-16 0.0 -3.88251e-19 -35.4496 -46.6175 -39.9586 -1.69956 68.1186 2.48672 -9.39538 -19.4651 -19.4123 2.03217e-16 0.0 3.88251e-19 14.6077 -19.2093 34.1097 0.749267 56.8614 -1.82579 9.65818 -23.2767 19.5467
14.7449 74.4671 9.38821 -178.504 -74.532 180.333 -2.78298 -0.331545 -2.01684 -1.2521 -14.5048 -0.919896 -6.47912 4.80562 -12.2999 -1.2044 -16.2265 -23.3052 -0.0 0.0 0.0 -0.0 0.0 0.0 1.57539e-13 7.33561e-13 6.90929e-13 -8.43805 29.4631 21.4307 -14.1292 -7.05487 25.8458 -0.187388 12.2536 1.74907 -1.26214e-10 5.81138e-09 2.75456e-09 -1.89149e-10 1.01022e-08 4.75797e-09 -1.26212e-10 5.81139e-09 2.75455e-09 7.73091 5.47488 0.417314 -1.26215e-10 5.81138e-09 2.75456e-09 2.90554 0.965183 0.102902 -1.26207e-10 5.81138e-09 2.75456e-09 10.2786 0.731801 0.0259123 -1.26216e-10 5.81138e-09 2.75457e-09 2.22167 -0.733487 -0.20892 1.57477e-13 7.33569e-13 6.90702e-13 11.3362 20.4908 10.2133 12.2408 -5.61885 -22.0769 0.348474 16.5569 -2.39462 -1.82881e-09 -6.48337e-09 4.19838e-09 -3.10337e-09 -1.13439e-08 7.27899e-09 -1.82881e-09 -6.48337e-09 4.19839e-09 -7.73091 5.47488 -0.417314 -1.82881e-09 -6.48337e-09 4.19839e-09 -2.90554 0.965183 -0.102902 -1.82881e-09 -6.48337e-09 4.19838e-09 -10.2786 0.731801 -0.0259123 -1.8288e-09 -6.48337e-09 4.19838e-09 -2.22167 -0.733487 0.20892 -2.03217e-16 0.0 -3.88251e-19 -35.4645 -46.5757 -40.0 -2.09278 70.9572 2.8796 -8.74665 -19.3851 -18.0104 2.03217e-16 0.0 3.88251e-19 14.642 -19.4635 33.937 0.772051 57.2969 -1.8393 9.63725 -23.3615 19.4295
14.8081 74.3037 9.24581 -178.88 -74.967 180.693 -3.22072 -0.0854933 -2.15693 -1.14738 -14.3708 -0.947973 -6.45786 4.81974 -12.3563 -0.97794 -15.6736 -23.3788 -0.0 0.0 0.0 -0.0 0.0 0.0 1.70489e-13 9.53278e-13 8.02753e-13 -7.94036 28.1948 21.7925 -13.2616 -6.3825 24.0702 -0.175895 11.8761 1.69359 -7.99656e-10 6.05933e-09 3.34106e-09 -1.34795e-09 1.05565e-08 5.7772e-09 -7.99655e-10 6.05934e-09 3.34105e-09 7.73091 5.47488 0.417314 -7.99658e-10 6.05933e-09 3.34106e-09 2.90554 0.965183 0.102902 -7.9965e-10 6.05934e-09 3.34106e-09 10.2786 0.731801 0.0259123 -7.99658e-10 6.05933e-09 3.34107e-09 2.22167 -0.733487 -0.20892 1.70437e-13 9.53277e-13 8.02508e-13 11.7655 20.282 9.86711 12.2505 -5.62584 -22.096 0.354906 16.7036 -2.41711 -2.28855e-09 -7.36923e-09 4.86507e-09 -3.88846e-09 -1.29015e-08 8.43755e-09 -2.28855e-09 -7.36923e-09 4.86507e-09 -7.73091 5.47488 -0.417314 -2.28855e-09 -7.36923e-09 4.86508e-09 -2.90554 0.965183 -0.102902 -2.28855e-09 -7.36923e-09 4.86507e-09 -10.2786 0.731801 -0.0259123 -2.28854e-09 -7.36923e-09 4.86507e-09 -2.22167 -0.733487 0.20892 -2.03217e-16 0.0 -3.88251e-19 -35.1017 -46.419 -39.6374 -2.50212 73.2244 3.28448 -8.13732 -19.3334 -16.6852 2.03217e-16 0.0 3.88251e-19 14.6851 -19.7504 33.7334 0.794329 57.6943 -1.84761 9.60882 -23.4279 19.3021
14.8707 74.1541 9.0773 -179.221 -75.4335 181.067 -3.64724 0.086456 -2.28006 -1.03099 -14.2158 -0.969033 -6.43502 4.83026 -12.4017 -0.795 -15.1208 -23.439 -0.0 0.0 0.0 -0.0 0.0 0.0 1.61441e-13 9.66098e-13 7.88976e-13 -7.27205 26.8467 21.9646 -12.4702 -5.78389 22.5237 -0.168536 11.6205 1.65615 -9.81411e-10 5.82992e-09 3.29461e-09 -1.66314e-09 1.01609e-08 5.69856e-09 -9.81409e-10 5.82993e-09 3.2946e-09 7.73091 5.47488 0.417314 -9.81413e-10 5.82992e-09 3.29461e-09 2.90554 0.965183 0.102902 -9.81405e-10 5.82992e-09 3.29461e-09 10.2786 0.731801 0.0259123 -9.81412e-10 5.82992e-09 3.29463e-09 2.22167 -0.733487 -0.20892 1.61396e-13 9.66089e-13 7.88728e-13 12.1722 20.1064 9.49417 12.2692 -5.63921 -22.1322 0.361164 16.845 -2.43881 -2.38052e-09 -6.91968e-09 4.72182e-09 -4.04916e-09 -1.21241e-08 8.19139e-09 -2.38052e-09 -6.91968e-09 4.72182e-09 -7.73091 5.47488 -0.417314 -2.38052e-09 -6.91968e-09 4.72182e-09 -2.90554 0.965183 -0.102902 -2.38052e-09 -6.91968e-09 4.72181e-09 -10.2786 0.731801 -0.0259123 -2.38052e-09 -6.91968e-09 4.72181e-09 -2.22167 -0.733487 0.20892 -2.03217e-16 0.0 -3.88251e-19 -34.2255 -46.1134 -38.7803 -2.81226 74.6077 3.58846 -7.63357 -19.3369 -15.5726 2.03217e-16 0.0 3.88251e-19 14.7717 -20.0289 33.5379 0.813968 58.018 -1.85103 9.54257 -23.4543 19.124
14.9274 74.0273 8.8794 -179.519 -75.9264 181.439 -4.05121 0.161118 -2.37808 -0.896091 -14.0289 -0.979698 -6.40591 4.8539 -12.4422 -0.679773 -14.5886 -23.5039 -0.0 0.0 0.0 -0.0 0.0 0.0 1.14061e-13 6.47197e-13 5.65927e-13 -6.44876 25.4103 21.9236 -11.7846 -5.28326 21.2275 -0.16671 11.554 1.64644 -3.67718e-10 4.71193e-09 2.17237e-09 -6.14115e-10 8.18774e-09 3.75416e-09 -3.67713e-10 4.71193e-09 2.17236e-09 7.73091 5.47488 0.417314 -3.67717e-10 4.71193e-09 2.17237e-09 2.90554 0.965183 0.102902 -3.67712e-10 4.71193e-09 2.17237e-09 10.2786 0.731801 0.0259123 -3.6772e-10 4.71193e-09 2.17239e-09 2.22167 -0.733487 -0.20892 1.14012e-13 6.4718e-13 5.65695e-13 12.5563 19.9838 9.0795 12.2935 -5.65651 -22.1795 0.367756 16.9934 -2.4616 -1.87907e-09 -4.13903e-09 3.19531e-09 -3.20333e-09 -7.27252e-09 5.54661e-09 -1.87907e-09 -4.13902e-09 3.19532e-09 -7.73091 5.47488 -0.417314 -1.87907e-09 -4.13903e-09 3.19532e-09 -2.90554 0.965183 -0.102902 -1.87907e-09 -4.13903e-09 3.19531e-09 -10.2786 0.731801 -0.0259123 -1.87906e-09 -4.13903e-09 3.19531e-09 -2.22167 -0.733487 0.20892 -2.03217e-16 0.0 -3.88251e-19 -32.6878 -45.5732 -37.281 -2.88174 74.876 3.6491 -7.22601 -19.4511 -14.6478 2.03217e-16 0.0 3.88251e-19 14.9118 -20.3015 33.3468 0.830507 58.2546 -1.84805 9.44254 -23.436 18.9032
14.9693 73.9294 8.64923 -179.8 -76.4461 181.826 -4.44835 0.149571 -2.45719 -0.74772 -13.8127 -0.983057 -6.36829 4.88605 -12.4775 -0.619018 -14.0792 -23.572 -0.0 0.0 0.0 -0.0 0.0 0.0 3.75503e-14 9.88958e-14 1.91386e-13 -5.48607 23.8784 21.6979 -11.2218 -4.90601 20.1407 -0.167595 11.584 1.65083 7.44219e-10 2.89771e-09 3.03618e-10 1.28861e-09 4.98323e-09 5.15573e-10 7.44225e-10 2.89772e-09 3.03614e-10 7.73091 5.47488 0.417314 7.44223e-10 2.89771e-09 3.03623e-10 2.90554 0.965183 0.102902 7.44224e-10 2.89771e-09 3.03618e-10 10.2786 0.731801 0.0259123 7.44215e-10 2.89771e-09 3.03633e-10 2.22167 -0.733487 -0.20892 3.74935e-14 9.88699e-14 1.91184e-13 12.9339 19.8894 8.6274 12.3215 -5.67644 -22.2344 0.375438 17.164 -2.48784 -9.65762e-10 3.44297e-10 6.67971e-10 -1.65949e-09 5.54121e-10 1.16665e-09 -9.65763e-10 3.44308e-10 6.67978e-10 -7.73091 5.47488 -0.417314 -9.65763e-10 3.44296e-10 6.67977e-10 -2.90554 0.965183 -0.102902 -9.65763e-10 3.44296e-10 6.6797e-10 -10.2786 0.731801 -0.0259123 -9.65761e-10 3.44299e-10 6.67967e-10 -2.22167 -0.733487 0.20892 -2.03217e-16 0.0 -3.88251e-19 -30.6614 -44.7959 -35.2744 -2.7323 74.2461 3.48761 -6.88019 -19.6523 -13.8565 2.03217e-16 0.0 3.88251e-19 15.0862 -20.5857 33.144 0.844748 58.4243 -1.83872 9.32155 -23.3838 18.6554
